<mxfile host="app.diagrams.net" modified="2024-02-14T13:27:11.568Z" agent="Mozilla/5.0 (Windows NT 10.0; Win64; x64) AppleWebKit/537.36 (KHTML, like Gecko) Chrome/121.0.0.0 Safari/537.36" etag="36dqQex0KxO3ppwyeyu6" version="23.1.4" type="device">
  <diagram id="R2lEEEUBdFMjLlhIrx00" name="Page-1">
    <mxGraphModel dx="3900" dy="2410" grid="0" gridSize="10" guides="1" tooltips="1" connect="1" arrows="1" fold="1" page="0" pageScale="1" pageWidth="850" pageHeight="1100" math="0" shadow="0" extFonts="Permanent Marker^https://fonts.googleapis.com/css?family=Permanent+Marker">
      <root>
        <mxCell id="0" />
        <mxCell id="1" parent="0" />
        <mxCell id="8X7dvq80VH3Jzj3rg1aC-86" value="" style="rounded=0;orthogonalLoop=1;jettySize=auto;html=1;strokeColor=default;anchorPointDirection=1;endFill=0;startFill=1;orthogonal=1;endArrow=ERone;endSize=12;" edge="1" parent="1" source="8X7dvq80VH3Jzj3rg1aC-85" target="8X7dvq80VH3Jzj3rg1aC-58">
          <mxGeometry relative="1" as="geometry" />
        </mxCell>
        <mxCell id="8X7dvq80VH3Jzj3rg1aC-6" style="rounded=0;orthogonalLoop=1;jettySize=auto;html=1;exitX=0.25;exitY=1;exitDx=0;exitDy=0;entryX=0.5;entryY=0;entryDx=0;entryDy=0;" edge="1" parent="1" source="8X7dvq80VH3Jzj3rg1aC-1" target="8X7dvq80VH3Jzj3rg1aC-2">
          <mxGeometry relative="1" as="geometry" />
        </mxCell>
        <mxCell id="8X7dvq80VH3Jzj3rg1aC-7" style="edgeStyle=orthogonalEdgeStyle;rounded=0;orthogonalLoop=1;jettySize=auto;html=1;exitX=0.5;exitY=1;exitDx=0;exitDy=0;" edge="1" parent="1" source="8X7dvq80VH3Jzj3rg1aC-1" target="8X7dvq80VH3Jzj3rg1aC-3">
          <mxGeometry relative="1" as="geometry" />
        </mxCell>
        <mxCell id="8X7dvq80VH3Jzj3rg1aC-8" style="rounded=0;orthogonalLoop=1;jettySize=auto;html=1;exitX=0.75;exitY=1;exitDx=0;exitDy=0;" edge="1" parent="1" source="8X7dvq80VH3Jzj3rg1aC-1" target="8X7dvq80VH3Jzj3rg1aC-4">
          <mxGeometry relative="1" as="geometry" />
        </mxCell>
        <mxCell id="8X7dvq80VH3Jzj3rg1aC-40" value="Host" style="edgeStyle=orthogonalEdgeStyle;rounded=0;orthogonalLoop=1;jettySize=auto;html=1;exitX=0.25;exitY=0;exitDx=0;exitDy=0;entryX=0;entryY=1;entryDx=0;entryDy=0;fontSize=16;" edge="1" parent="1" source="8X7dvq80VH3Jzj3rg1aC-1" target="8X7dvq80VH3Jzj3rg1aC-38">
          <mxGeometry relative="1" as="geometry" />
        </mxCell>
        <mxCell id="8X7dvq80VH3Jzj3rg1aC-41" value="Guest" style="edgeStyle=orthogonalEdgeStyle;rounded=0;orthogonalLoop=1;jettySize=auto;html=1;exitX=0.75;exitY=0;exitDx=0;exitDy=0;entryX=1;entryY=1;entryDx=0;entryDy=0;fontSize=16;" edge="1" parent="1" source="8X7dvq80VH3Jzj3rg1aC-1" target="8X7dvq80VH3Jzj3rg1aC-38">
          <mxGeometry relative="1" as="geometry" />
        </mxCell>
        <mxCell id="8X7dvq80VH3Jzj3rg1aC-1" value="Team" style="rounded=0;whiteSpace=wrap;html=1;fontSize=20;fontStyle=1" vertex="1" parent="1">
          <mxGeometry x="160" y="400" width="120" height="60" as="geometry" />
        </mxCell>
        <mxCell id="8X7dvq80VH3Jzj3rg1aC-2" value="Name" style="ellipse;whiteSpace=wrap;html=1;fontSize=16;" vertex="1" parent="1">
          <mxGeometry x="60" y="520" width="120" height="40" as="geometry" />
        </mxCell>
        <mxCell id="8X7dvq80VH3Jzj3rg1aC-3" value="City" style="ellipse;whiteSpace=wrap;html=1;fontSize=16;" vertex="1" parent="1">
          <mxGeometry x="160" y="570" width="120" height="40" as="geometry" />
        </mxCell>
        <mxCell id="8X7dvq80VH3Jzj3rg1aC-4" value="Coach" style="ellipse;whiteSpace=wrap;html=1;fontSize=16;" vertex="1" parent="1">
          <mxGeometry x="260" y="520" width="120" height="40" as="geometry" />
        </mxCell>
        <mxCell id="8X7dvq80VH3Jzj3rg1aC-34" style="rounded=0;orthogonalLoop=1;jettySize=auto;html=1;exitX=0.25;exitY=1;exitDx=0;exitDy=0;" edge="1" parent="1" source="8X7dvq80VH3Jzj3rg1aC-10" target="8X7dvq80VH3Jzj3rg1aC-11">
          <mxGeometry relative="1" as="geometry" />
        </mxCell>
        <mxCell id="8X7dvq80VH3Jzj3rg1aC-35" style="rounded=0;orthogonalLoop=1;jettySize=auto;html=1;exitX=0.75;exitY=1;exitDx=0;exitDy=0;entryX=0.5;entryY=0;entryDx=0;entryDy=0;" edge="1" parent="1" source="8X7dvq80VH3Jzj3rg1aC-10" target="8X7dvq80VH3Jzj3rg1aC-12">
          <mxGeometry relative="1" as="geometry" />
        </mxCell>
        <mxCell id="8X7dvq80VH3Jzj3rg1aC-36" style="edgeStyle=orthogonalEdgeStyle;rounded=0;orthogonalLoop=1;jettySize=auto;html=1;exitX=0.5;exitY=1;exitDx=0;exitDy=0;entryX=0.5;entryY=0;entryDx=0;entryDy=0;" edge="1" parent="1" source="8X7dvq80VH3Jzj3rg1aC-10" target="8X7dvq80VH3Jzj3rg1aC-13">
          <mxGeometry relative="1" as="geometry" />
        </mxCell>
        <mxCell id="8X7dvq80VH3Jzj3rg1aC-10" value="Player" style="rounded=0;whiteSpace=wrap;html=1;fontSize=20;fontStyle=1" vertex="1" parent="1">
          <mxGeometry x="560" y="400" width="120" height="60" as="geometry" />
        </mxCell>
        <mxCell id="8X7dvq80VH3Jzj3rg1aC-11" value="Name" style="ellipse;whiteSpace=wrap;html=1;fontSize=16;" vertex="1" parent="1">
          <mxGeometry x="480" y="520" width="120" height="40" as="geometry" />
        </mxCell>
        <mxCell id="8X7dvq80VH3Jzj3rg1aC-12" value="Position" style="ellipse;whiteSpace=wrap;html=1;fontSize=16;" vertex="1" parent="1">
          <mxGeometry x="650" y="520" width="120" height="40" as="geometry" />
        </mxCell>
        <mxCell id="8X7dvq80VH3Jzj3rg1aC-13" value="Skill Level" style="ellipse;whiteSpace=wrap;html=1;fontSize=16;" vertex="1" parent="1">
          <mxGeometry x="560" y="570" width="120" height="40" as="geometry" />
        </mxCell>
        <mxCell id="8X7dvq80VH3Jzj3rg1aC-31" value="" style="rounded=0;orthogonalLoop=1;jettySize=auto;html=1;exitX=0;exitY=0.5;exitDx=0;exitDy=0;entryX=1;entryY=0.25;entryDx=0;entryDy=0;endSize=12;startSize=0;endArrow=ERone;endFill=0;" edge="1" parent="1" source="8X7dvq80VH3Jzj3rg1aC-14" target="8X7dvq80VH3Jzj3rg1aC-1">
          <mxGeometry x="0.8095" y="-15" relative="1" as="geometry">
            <mxPoint as="offset" />
          </mxGeometry>
        </mxCell>
        <mxCell id="8X7dvq80VH3Jzj3rg1aC-37" style="rounded=0;orthogonalLoop=1;jettySize=auto;html=1;exitX=1;exitY=0.5;exitDx=0;exitDy=0;entryX=0;entryY=0.25;entryDx=0;entryDy=0;endArrow=ERone;endFill=0;endSize=12;" edge="1" parent="1" source="8X7dvq80VH3Jzj3rg1aC-14" target="8X7dvq80VH3Jzj3rg1aC-10">
          <mxGeometry relative="1" as="geometry" />
        </mxCell>
        <mxCell id="8X7dvq80VH3Jzj3rg1aC-14" value="Captain" style="rhombus;whiteSpace=wrap;html=1;fontSize=16;" vertex="1" parent="1">
          <mxGeometry x="360" y="360" width="120" height="60" as="geometry" />
        </mxCell>
        <mxCell id="8X7dvq80VH3Jzj3rg1aC-29" value="" style="rounded=0;orthogonalLoop=1;jettySize=auto;html=1;exitX=0;exitY=0.5;exitDx=0;exitDy=0;entryX=1;entryY=0.75;entryDx=0;entryDy=0;endArrow=ERone;endFill=0;startSize=0;endSize=12;" edge="1" parent="1" source="8X7dvq80VH3Jzj3rg1aC-28" target="8X7dvq80VH3Jzj3rg1aC-1">
          <mxGeometry x="0.8095" y="15" relative="1" as="geometry">
            <mxPoint as="offset" />
          </mxGeometry>
        </mxCell>
        <mxCell id="8X7dvq80VH3Jzj3rg1aC-63" value="" style="rounded=0;orthogonalLoop=1;jettySize=auto;html=1;endArrow=ERoneToMany;endFill=0;exitX=1;exitY=0.5;exitDx=0;exitDy=0;endSize=12;" edge="1" parent="1" source="8X7dvq80VH3Jzj3rg1aC-28" target="8X7dvq80VH3Jzj3rg1aC-10">
          <mxGeometry relative="1" as="geometry" />
        </mxCell>
        <mxCell id="8X7dvq80VH3Jzj3rg1aC-28" value="Belongs to" style="rhombus;whiteSpace=wrap;html=1;fontSize=16;" vertex="1" parent="1">
          <mxGeometry x="360" y="440" width="120" height="60" as="geometry" />
        </mxCell>
        <mxCell id="8X7dvq80VH3Jzj3rg1aC-44" style="rounded=0;orthogonalLoop=1;jettySize=auto;html=1;exitX=0;exitY=0;exitDx=0;exitDy=0;entryX=0.5;entryY=1;entryDx=0;entryDy=0;" edge="1" parent="1" source="8X7dvq80VH3Jzj3rg1aC-38" target="8X7dvq80VH3Jzj3rg1aC-42">
          <mxGeometry relative="1" as="geometry" />
        </mxCell>
        <mxCell id="8X7dvq80VH3Jzj3rg1aC-45" style="rounded=0;orthogonalLoop=1;jettySize=auto;html=1;exitX=1;exitY=0;exitDx=0;exitDy=0;entryX=0.5;entryY=1;entryDx=0;entryDy=0;" edge="1" parent="1" source="8X7dvq80VH3Jzj3rg1aC-38" target="8X7dvq80VH3Jzj3rg1aC-43">
          <mxGeometry relative="1" as="geometry" />
        </mxCell>
        <mxCell id="8X7dvq80VH3Jzj3rg1aC-38" value="Game" style="rhombus;whiteSpace=wrap;html=1;fontSize=17;" vertex="1" parent="1">
          <mxGeometry x="160" y="240" width="120" height="60" as="geometry" />
        </mxCell>
        <mxCell id="8X7dvq80VH3Jzj3rg1aC-42" value="Date" style="ellipse;whiteSpace=wrap;html=1;fontSize=16;" vertex="1" parent="1">
          <mxGeometry x="60" y="180" width="120" height="40" as="geometry" />
        </mxCell>
        <mxCell id="8X7dvq80VH3Jzj3rg1aC-43" value="Score" style="ellipse;whiteSpace=wrap;html=1;fontSize=16;" vertex="1" parent="1">
          <mxGeometry x="260" y="180" width="120" height="40" as="geometry" />
        </mxCell>
        <mxCell id="8X7dvq80VH3Jzj3rg1aC-48" value="" style="edgeStyle=orthogonalEdgeStyle;rounded=0;orthogonalLoop=1;jettySize=auto;html=1;endArrow=ERone;endFill=0;endSize=12;" edge="1" parent="1" source="8X7dvq80VH3Jzj3rg1aC-47" target="8X7dvq80VH3Jzj3rg1aC-10">
          <mxGeometry relative="1" as="geometry" />
        </mxCell>
        <mxCell id="8X7dvq80VH3Jzj3rg1aC-47" value="Log" style="rhombus;whiteSpace=wrap;html=1;fontSize=17;" vertex="1" parent="1">
          <mxGeometry x="560" y="300" width="120" height="60" as="geometry" />
        </mxCell>
        <mxCell id="8X7dvq80VH3Jzj3rg1aC-49" value="ID" style="ellipse;whiteSpace=wrap;html=1;fontSize=16;" vertex="1" parent="1">
          <mxGeometry x="470" y="120" width="120" height="40" as="geometry" />
        </mxCell>
        <mxCell id="8X7dvq80VH3Jzj3rg1aC-50" value="Description" style="ellipse;whiteSpace=wrap;html=1;fontSize=16;" vertex="1" parent="1">
          <mxGeometry x="650" y="120" width="120" height="40" as="geometry" />
        </mxCell>
        <mxCell id="8X7dvq80VH3Jzj3rg1aC-55" style="rounded=0;orthogonalLoop=1;jettySize=auto;html=1;exitX=0.25;exitY=0;exitDx=0;exitDy=0;entryX=0.5;entryY=1;entryDx=0;entryDy=0;" edge="1" parent="1" source="8X7dvq80VH3Jzj3rg1aC-54" target="8X7dvq80VH3Jzj3rg1aC-49">
          <mxGeometry relative="1" as="geometry" />
        </mxCell>
        <mxCell id="8X7dvq80VH3Jzj3rg1aC-56" style="rounded=0;orthogonalLoop=1;jettySize=auto;html=1;exitX=0.75;exitY=0;exitDx=0;exitDy=0;entryX=0.5;entryY=1;entryDx=0;entryDy=0;" edge="1" parent="1" source="8X7dvq80VH3Jzj3rg1aC-54" target="8X7dvq80VH3Jzj3rg1aC-50">
          <mxGeometry relative="1" as="geometry" />
        </mxCell>
        <mxCell id="8X7dvq80VH3Jzj3rg1aC-57" style="edgeStyle=orthogonalEdgeStyle;rounded=0;orthogonalLoop=1;jettySize=auto;html=1;exitX=0.5;exitY=0;exitDx=0;exitDy=0;entryX=0.5;entryY=1;entryDx=0;entryDy=0;endArrow=ERzeroToMany;endFill=0;endSize=12;" edge="1" parent="1" source="8X7dvq80VH3Jzj3rg1aC-47" target="8X7dvq80VH3Jzj3rg1aC-54">
          <mxGeometry relative="1" as="geometry" />
        </mxCell>
        <mxCell id="8X7dvq80VH3Jzj3rg1aC-54" value="Injury Record" style="rounded=0;whiteSpace=wrap;html=1;fontSize=20;fontStyle=1" vertex="1" parent="1">
          <mxGeometry x="560" y="200" width="120" height="60" as="geometry" />
        </mxCell>
        <mxCell id="8X7dvq80VH3Jzj3rg1aC-92" style="edgeStyle=orthogonalEdgeStyle;rounded=0;orthogonalLoop=1;jettySize=auto;html=1;exitX=0;exitY=0.5;exitDx=0;exitDy=0;entryX=0.5;entryY=1;entryDx=0;entryDy=0;endArrow=ERoneToMany;endFill=0;endSize=12;" edge="1" parent="1" source="8X7dvq80VH3Jzj3rg1aC-91" target="8X7dvq80VH3Jzj3rg1aC-58">
          <mxGeometry relative="1" as="geometry" />
        </mxCell>
        <mxCell id="8X7dvq80VH3Jzj3rg1aC-58" value="&lt;font style=&quot;font-size: 20px;&quot;&gt;Person&lt;/font&gt;" style="swimlane;fontStyle=0;childLayout=stackLayout;horizontal=1;startSize=30;horizontalStack=0;resizeParent=1;resizeParentMax=0;resizeLast=0;collapsible=1;marginBottom=0;whiteSpace=wrap;html=1;" vertex="1" parent="1">
          <mxGeometry x="1060" y="150" width="140" height="150" as="geometry">
            <mxRectangle x="1220" y="160" width="60" height="30" as="alternateBounds" />
          </mxGeometry>
        </mxCell>
        <mxCell id="8X7dvq80VH3Jzj3rg1aC-59" value="ID&lt;span style=&quot;white-space: pre; font-size: 14px;&quot;&gt;&#x9;&lt;/span&gt;" style="text;strokeColor=none;fillColor=none;align=left;verticalAlign=middle;spacingLeft=4;spacingRight=4;overflow=hidden;points=[[0,0.5],[1,0.5]];portConstraint=eastwest;rotatable=0;whiteSpace=wrap;html=1;fontSize=14;" vertex="1" parent="8X7dvq80VH3Jzj3rg1aC-58">
          <mxGeometry y="30" width="140" height="30" as="geometry" />
        </mxCell>
        <mxCell id="8X7dvq80VH3Jzj3rg1aC-60" value="Name" style="text;strokeColor=none;fillColor=none;align=left;verticalAlign=middle;spacingLeft=4;spacingRight=4;overflow=hidden;points=[[0,0.5],[1,0.5]];portConstraint=eastwest;rotatable=0;whiteSpace=wrap;html=1;fontSize=14;" vertex="1" parent="8X7dvq80VH3Jzj3rg1aC-58">
          <mxGeometry y="60" width="140" height="30" as="geometry" />
        </mxCell>
        <mxCell id="8X7dvq80VH3Jzj3rg1aC-66" value="Address" style="text;strokeColor=none;fillColor=none;align=left;verticalAlign=middle;spacingLeft=4;spacingRight=4;overflow=hidden;points=[[0,0.5],[1,0.5]];portConstraint=eastwest;rotatable=0;whiteSpace=wrap;html=1;fontSize=14;" vertex="1" parent="8X7dvq80VH3Jzj3rg1aC-58">
          <mxGeometry y="90" width="140" height="30" as="geometry" />
        </mxCell>
        <mxCell id="8X7dvq80VH3Jzj3rg1aC-61" value="Phone No" style="text;strokeColor=none;fillColor=none;align=left;verticalAlign=middle;spacingLeft=4;spacingRight=4;overflow=hidden;points=[[0,0.5],[1,0.5]];portConstraint=eastwest;rotatable=0;whiteSpace=wrap;html=1;fontSize=14;" vertex="1" parent="8X7dvq80VH3Jzj3rg1aC-58">
          <mxGeometry y="120" width="140" height="30" as="geometry" />
        </mxCell>
        <mxCell id="8X7dvq80VH3Jzj3rg1aC-93" style="edgeStyle=orthogonalEdgeStyle;rounded=0;orthogonalLoop=1;jettySize=auto;html=1;entryX=0.5;entryY=1;entryDx=0;entryDy=0;endArrow=ERoneToMany;endFill=0;endSize=12;" edge="1" parent="1" source="8X7dvq80VH3Jzj3rg1aC-91" target="8X7dvq80VH3Jzj3rg1aC-67">
          <mxGeometry relative="1" as="geometry" />
        </mxCell>
        <mxCell id="8X7dvq80VH3Jzj3rg1aC-67" value="&lt;font style=&quot;font-size: 20px;&quot;&gt;Car&lt;/font&gt;" style="swimlane;fontStyle=0;childLayout=stackLayout;horizontal=1;startSize=30;horizontalStack=0;resizeParent=1;resizeParentMax=0;resizeLast=0;collapsible=1;marginBottom=0;whiteSpace=wrap;html=1;" vertex="1" parent="1">
          <mxGeometry x="1400" y="165" width="140" height="120" as="geometry">
            <mxRectangle x="1520" y="170" width="60" height="30" as="alternateBounds" />
          </mxGeometry>
        </mxCell>
        <mxCell id="8X7dvq80VH3Jzj3rg1aC-68" value="VID" style="text;strokeColor=none;fillColor=none;align=left;verticalAlign=middle;spacingLeft=4;spacingRight=4;overflow=hidden;points=[[0,0.5],[1,0.5]];portConstraint=eastwest;rotatable=0;whiteSpace=wrap;html=1;fontSize=14;" vertex="1" parent="8X7dvq80VH3Jzj3rg1aC-67">
          <mxGeometry y="30" width="140" height="30" as="geometry" />
        </mxCell>
        <mxCell id="8X7dvq80VH3Jzj3rg1aC-69" value="Model" style="text;strokeColor=none;fillColor=none;align=left;verticalAlign=middle;spacingLeft=4;spacingRight=4;overflow=hidden;points=[[0,0.5],[1,0.5]];portConstraint=eastwest;rotatable=0;whiteSpace=wrap;html=1;fontSize=14;" vertex="1" parent="8X7dvq80VH3Jzj3rg1aC-67">
          <mxGeometry y="60" width="140" height="30" as="geometry" />
        </mxCell>
        <mxCell id="8X7dvq80VH3Jzj3rg1aC-70" value="Year" style="text;strokeColor=none;fillColor=none;align=left;verticalAlign=middle;spacingLeft=4;spacingRight=4;overflow=hidden;points=[[0,0.5],[1,0.5]];portConstraint=eastwest;rotatable=0;whiteSpace=wrap;html=1;fontSize=14;" vertex="1" parent="8X7dvq80VH3Jzj3rg1aC-67">
          <mxGeometry y="90" width="140" height="30" as="geometry" />
        </mxCell>
        <mxCell id="8X7dvq80VH3Jzj3rg1aC-72" value="&lt;font style=&quot;font-size: 20px;&quot;&gt;Accident&lt;/font&gt;" style="swimlane;fontStyle=0;childLayout=stackLayout;horizontal=1;startSize=30;horizontalStack=0;resizeParent=1;resizeParentMax=0;resizeLast=0;collapsible=1;marginBottom=0;whiteSpace=wrap;html=1;" vertex="1" parent="1">
          <mxGeometry x="1580" y="400" width="140" height="150" as="geometry">
            <mxRectangle x="1520" y="420" width="60" height="30" as="alternateBounds" />
          </mxGeometry>
        </mxCell>
        <mxCell id="8X7dvq80VH3Jzj3rg1aC-73" value="Report ID" style="text;strokeColor=none;fillColor=none;align=left;verticalAlign=middle;spacingLeft=4;spacingRight=4;overflow=hidden;points=[[0,0.5],[1,0.5]];portConstraint=eastwest;rotatable=0;whiteSpace=wrap;html=1;fontSize=14;" vertex="1" parent="8X7dvq80VH3Jzj3rg1aC-72">
          <mxGeometry y="30" width="140" height="30" as="geometry" />
        </mxCell>
        <mxCell id="8X7dvq80VH3Jzj3rg1aC-74" value="Date" style="text;strokeColor=none;fillColor=none;align=left;verticalAlign=middle;spacingLeft=4;spacingRight=4;overflow=hidden;points=[[0,0.5],[1,0.5]];portConstraint=eastwest;rotatable=0;whiteSpace=wrap;html=1;fontSize=14;" vertex="1" parent="8X7dvq80VH3Jzj3rg1aC-72">
          <mxGeometry y="60" width="140" height="30" as="geometry" />
        </mxCell>
        <mxCell id="8X7dvq80VH3Jzj3rg1aC-75" value="Location" style="text;strokeColor=none;fillColor=none;align=left;verticalAlign=middle;spacingLeft=4;spacingRight=4;overflow=hidden;points=[[0,0.5],[1,0.5]];portConstraint=eastwest;rotatable=0;whiteSpace=wrap;html=1;fontSize=14;" vertex="1" parent="8X7dvq80VH3Jzj3rg1aC-72">
          <mxGeometry y="90" width="140" height="30" as="geometry" />
        </mxCell>
        <mxCell id="8X7dvq80VH3Jzj3rg1aC-76" value="Details" style="text;strokeColor=none;fillColor=none;align=left;verticalAlign=middle;spacingLeft=4;spacingRight=4;overflow=hidden;points=[[0,0.5],[1,0.5]];portConstraint=eastwest;rotatable=0;whiteSpace=wrap;html=1;fontSize=14;" vertex="1" parent="8X7dvq80VH3Jzj3rg1aC-72">
          <mxGeometry y="120" width="140" height="30" as="geometry" />
        </mxCell>
        <mxCell id="8X7dvq80VH3Jzj3rg1aC-89" style="rounded=0;orthogonalLoop=1;jettySize=auto;html=1;exitX=1;exitY=0.5;exitDx=0;exitDy=0;entryX=0;entryY=0.5;entryDx=0;entryDy=0;endArrow=ERoneToMany;endFill=0;endSize=12;" edge="1" parent="1" source="8X7dvq80VH3Jzj3rg1aC-85" target="8X7dvq80VH3Jzj3rg1aC-67">
          <mxGeometry relative="1" as="geometry" />
        </mxCell>
        <mxCell id="8X7dvq80VH3Jzj3rg1aC-85" value="Owns" style="rhombus;whiteSpace=wrap;html=1;fontSize=16;" vertex="1" parent="1">
          <mxGeometry x="1260" y="195" width="80" height="60" as="geometry" />
        </mxCell>
        <mxCell id="8X7dvq80VH3Jzj3rg1aC-94" style="edgeStyle=orthogonalEdgeStyle;rounded=0;orthogonalLoop=1;jettySize=auto;html=1;exitX=0.5;exitY=1;exitDx=0;exitDy=0;endArrow=ERzeroToMany;endFill=0;endSize=12;" edge="1" parent="1" source="8X7dvq80VH3Jzj3rg1aC-91" target="8X7dvq80VH3Jzj3rg1aC-72">
          <mxGeometry relative="1" as="geometry" />
        </mxCell>
        <mxCell id="8X7dvq80VH3Jzj3rg1aC-91" value="Participates" style="rhombus;whiteSpace=wrap;html=1;fontSize=16;" vertex="1" parent="1">
          <mxGeometry x="1410" y="370" width="120" height="60" as="geometry" />
        </mxCell>
        <mxCell id="8X7dvq80VH3Jzj3rg1aC-132" style="rounded=0;orthogonalLoop=1;jettySize=auto;html=1;exitX=0.5;exitY=1;exitDx=0;exitDy=0;entryX=0.5;entryY=0;entryDx=0;entryDy=0;endArrow=ERoneToMany;endFill=0;endSize=12;" edge="1" parent="1" source="8X7dvq80VH3Jzj3rg1aC-100" target="8X7dvq80VH3Jzj3rg1aC-119">
          <mxGeometry relative="1" as="geometry" />
        </mxCell>
        <mxCell id="8X7dvq80VH3Jzj3rg1aC-133" style="rounded=0;orthogonalLoop=1;jettySize=auto;html=1;exitX=0;exitY=0.5;exitDx=0;exitDy=0;entryX=1;entryY=0.5;entryDx=0;entryDy=0;endArrow=ERoneToMany;endFill=0;endSize=12;" edge="1" parent="1" source="8X7dvq80VH3Jzj3rg1aC-100" target="8X7dvq80VH3Jzj3rg1aC-113">
          <mxGeometry relative="1" as="geometry" />
        </mxCell>
        <mxCell id="8X7dvq80VH3Jzj3rg1aC-100" value="Treats" style="rhombus;whiteSpace=wrap;html=1;fontSize=16;" vertex="1" parent="1">
          <mxGeometry x="630" y="935" width="80" height="60" as="geometry" />
        </mxCell>
        <mxCell id="8X7dvq80VH3Jzj3rg1aC-107" value="&lt;span style=&quot;font-size: 20px;&quot;&gt;Test&lt;/span&gt;" style="swimlane;fontStyle=0;childLayout=stackLayout;horizontal=1;startSize=30;horizontalStack=0;resizeParent=1;resizeParentMax=0;resizeLast=0;collapsible=1;marginBottom=0;whiteSpace=wrap;html=1;" vertex="1" parent="1">
          <mxGeometry x="60" y="1050" width="140" height="180" as="geometry">
            <mxRectangle x="150" y="1450" width="60" height="30" as="alternateBounds" />
          </mxGeometry>
        </mxCell>
        <mxCell id="8X7dvq80VH3Jzj3rg1aC-108" value="Test ID" style="text;strokeColor=none;fillColor=none;align=left;verticalAlign=middle;spacingLeft=4;spacingRight=4;overflow=hidden;points=[[0,0.5],[1,0.5]];portConstraint=eastwest;rotatable=0;whiteSpace=wrap;html=1;fontSize=14;" vertex="1" parent="8X7dvq80VH3Jzj3rg1aC-107">
          <mxGeometry y="30" width="140" height="30" as="geometry" />
        </mxCell>
        <mxCell id="8X7dvq80VH3Jzj3rg1aC-112" value="Test Name" style="text;strokeColor=none;fillColor=none;align=left;verticalAlign=middle;spacingLeft=4;spacingRight=4;overflow=hidden;points=[[0,0.5],[1,0.5]];portConstraint=eastwest;rotatable=0;whiteSpace=wrap;html=1;fontSize=14;" vertex="1" parent="8X7dvq80VH3Jzj3rg1aC-107">
          <mxGeometry y="60" width="140" height="30" as="geometry" />
        </mxCell>
        <mxCell id="8X7dvq80VH3Jzj3rg1aC-109" value="Date" style="text;strokeColor=none;fillColor=none;align=left;verticalAlign=middle;spacingLeft=4;spacingRight=4;overflow=hidden;points=[[0,0.5],[1,0.5]];portConstraint=eastwest;rotatable=0;whiteSpace=wrap;html=1;fontSize=14;" vertex="1" parent="8X7dvq80VH3Jzj3rg1aC-107">
          <mxGeometry y="90" width="140" height="30" as="geometry" />
        </mxCell>
        <mxCell id="8X7dvq80VH3Jzj3rg1aC-110" value="Time" style="text;strokeColor=none;fillColor=none;align=left;verticalAlign=middle;spacingLeft=4;spacingRight=4;overflow=hidden;points=[[0,0.5],[1,0.5]];portConstraint=eastwest;rotatable=0;whiteSpace=wrap;html=1;fontSize=14;" vertex="1" parent="8X7dvq80VH3Jzj3rg1aC-107">
          <mxGeometry y="120" width="140" height="30" as="geometry" />
        </mxCell>
        <mxCell id="8X7dvq80VH3Jzj3rg1aC-111" value="Result" style="text;strokeColor=none;fillColor=none;align=left;verticalAlign=middle;spacingLeft=4;spacingRight=4;overflow=hidden;points=[[0,0.5],[1,0.5]];portConstraint=eastwest;rotatable=0;whiteSpace=wrap;html=1;fontSize=14;" vertex="1" parent="8X7dvq80VH3Jzj3rg1aC-107">
          <mxGeometry y="150" width="140" height="30" as="geometry" />
        </mxCell>
        <mxCell id="8X7dvq80VH3Jzj3rg1aC-113" value="&lt;span style=&quot;font-size: 20px;&quot;&gt;Patient&lt;/span&gt;" style="swimlane;fontStyle=0;childLayout=stackLayout;horizontal=1;startSize=30;horizontalStack=0;resizeParent=1;resizeParentMax=0;resizeLast=0;collapsible=1;marginBottom=0;whiteSpace=wrap;html=1;" vertex="1" parent="1">
          <mxGeometry x="320" y="890" width="160" height="150" as="geometry">
            <mxRectangle x="420" y="1210" width="60" height="30" as="alternateBounds" />
          </mxGeometry>
        </mxCell>
        <mxCell id="8X7dvq80VH3Jzj3rg1aC-114" value="ID" style="text;strokeColor=none;fillColor=none;align=left;verticalAlign=middle;spacingLeft=4;spacingRight=4;overflow=hidden;points=[[0,0.5],[1,0.5]];portConstraint=eastwest;rotatable=0;whiteSpace=wrap;html=1;fontSize=14;" vertex="1" parent="8X7dvq80VH3Jzj3rg1aC-113">
          <mxGeometry y="30" width="160" height="30" as="geometry" />
        </mxCell>
        <mxCell id="8X7dvq80VH3Jzj3rg1aC-115" value="Name" style="text;strokeColor=none;fillColor=none;align=left;verticalAlign=middle;spacingLeft=4;spacingRight=4;overflow=hidden;points=[[0,0.5],[1,0.5]];portConstraint=eastwest;rotatable=0;whiteSpace=wrap;html=1;fontSize=14;" vertex="1" parent="8X7dvq80VH3Jzj3rg1aC-113">
          <mxGeometry y="60" width="160" height="30" as="geometry" />
        </mxCell>
        <mxCell id="8X7dvq80VH3Jzj3rg1aC-116" value="Date Admitted" style="text;strokeColor=none;fillColor=none;align=left;verticalAlign=middle;spacingLeft=4;spacingRight=4;overflow=hidden;points=[[0,0.5],[1,0.5]];portConstraint=eastwest;rotatable=0;whiteSpace=wrap;html=1;fontSize=14;" vertex="1" parent="8X7dvq80VH3Jzj3rg1aC-113">
          <mxGeometry y="90" width="160" height="30" as="geometry" />
        </mxCell>
        <mxCell id="8X7dvq80VH3Jzj3rg1aC-117" value="Date Check Out" style="text;strokeColor=none;fillColor=none;align=left;verticalAlign=middle;spacingLeft=4;spacingRight=4;overflow=hidden;points=[[0,0.5],[1,0.5]];portConstraint=eastwest;rotatable=0;whiteSpace=wrap;html=1;fontSize=14;" vertex="1" parent="8X7dvq80VH3Jzj3rg1aC-113">
          <mxGeometry y="120" width="160" height="30" as="geometry" />
        </mxCell>
        <mxCell id="8X7dvq80VH3Jzj3rg1aC-119" value="&lt;span style=&quot;font-size: 20px;&quot;&gt;Doctor&lt;/span&gt;" style="swimlane;fontStyle=0;childLayout=stackLayout;horizontal=1;startSize=30;horizontalStack=0;resizeParent=1;resizeParentMax=0;resizeLast=0;collapsible=1;marginBottom=0;whiteSpace=wrap;html=1;" vertex="1" parent="1">
          <mxGeometry x="600" y="1080" width="140" height="120" as="geometry">
            <mxRectangle x="670" y="1450" width="60" height="30" as="alternateBounds" />
          </mxGeometry>
        </mxCell>
        <mxCell id="8X7dvq80VH3Jzj3rg1aC-120" value="ID" style="text;strokeColor=none;fillColor=none;align=left;verticalAlign=middle;spacingLeft=4;spacingRight=4;overflow=hidden;points=[[0,0.5],[1,0.5]];portConstraint=eastwest;rotatable=0;whiteSpace=wrap;html=1;fontSize=14;" vertex="1" parent="8X7dvq80VH3Jzj3rg1aC-119">
          <mxGeometry y="30" width="140" height="30" as="geometry" />
        </mxCell>
        <mxCell id="8X7dvq80VH3Jzj3rg1aC-121" value="Name" style="text;strokeColor=none;fillColor=none;align=left;verticalAlign=middle;spacingLeft=4;spacingRight=4;overflow=hidden;points=[[0,0.5],[1,0.5]];portConstraint=eastwest;rotatable=0;whiteSpace=wrap;html=1;fontSize=14;" vertex="1" parent="8X7dvq80VH3Jzj3rg1aC-119">
          <mxGeometry y="60" width="140" height="30" as="geometry" />
        </mxCell>
        <mxCell id="8X7dvq80VH3Jzj3rg1aC-122" value="Specializations" style="text;strokeColor=none;fillColor=none;align=left;verticalAlign=middle;spacingLeft=4;spacingRight=4;overflow=hidden;points=[[0,0.5],[1,0.5]];portConstraint=eastwest;rotatable=0;whiteSpace=wrap;html=1;fontSize=14;" vertex="1" parent="8X7dvq80VH3Jzj3rg1aC-119">
          <mxGeometry y="90" width="140" height="30" as="geometry" />
        </mxCell>
        <mxCell id="8X7dvq80VH3Jzj3rg1aC-127" style="rounded=0;orthogonalLoop=1;jettySize=auto;html=1;exitX=0.5;exitY=1;exitDx=0;exitDy=0;entryX=0.5;entryY=0;entryDx=0;entryDy=0;shape=link;" edge="1" parent="1" source="8X7dvq80VH3Jzj3rg1aC-125" target="8X7dvq80VH3Jzj3rg1aC-107">
          <mxGeometry relative="1" as="geometry" />
        </mxCell>
        <mxCell id="8X7dvq80VH3Jzj3rg1aC-129" style="rounded=0;orthogonalLoop=1;jettySize=auto;html=1;exitX=1;exitY=0.5;exitDx=0;exitDy=0;entryX=0;entryY=0.5;entryDx=0;entryDy=0;endArrow=ERoneToMany;endFill=0;endSize=12;" edge="1" parent="1" source="8X7dvq80VH3Jzj3rg1aC-125" target="8X7dvq80VH3Jzj3rg1aC-113">
          <mxGeometry relative="1" as="geometry" />
        </mxCell>
        <mxCell id="8X7dvq80VH3Jzj3rg1aC-125" value="Test Log" style="rhombus;whiteSpace=wrap;html=1;fontSize=16;" vertex="1" parent="1">
          <mxGeometry x="70" y="935" width="120" height="60" as="geometry" />
        </mxCell>
        <mxCell id="8X7dvq80VH3Jzj3rg1aC-130" style="edgeStyle=orthogonalEdgeStyle;rounded=0;orthogonalLoop=1;jettySize=auto;html=1;exitX=1;exitY=0.5;exitDx=0;exitDy=0;entryX=0;entryY=0.5;entryDx=0;entryDy=0;endArrow=ERzeroToMany;endFill=0;endSize=12;" edge="1" parent="1" source="8X7dvq80VH3Jzj3rg1aC-126" target="8X7dvq80VH3Jzj3rg1aC-119">
          <mxGeometry relative="1" as="geometry" />
        </mxCell>
        <mxCell id="8X7dvq80VH3Jzj3rg1aC-131" style="edgeStyle=orthogonalEdgeStyle;rounded=0;orthogonalLoop=1;jettySize=auto;html=1;exitX=0;exitY=0.5;exitDx=0;exitDy=0;entryX=1;entryY=0.5;entryDx=0;entryDy=0;endArrow=ERzeroToMany;endFill=0;endSize=12;" edge="1" parent="1" source="8X7dvq80VH3Jzj3rg1aC-126" target="8X7dvq80VH3Jzj3rg1aC-107">
          <mxGeometry relative="1" as="geometry" />
        </mxCell>
        <mxCell id="8X7dvq80VH3Jzj3rg1aC-126" value="Performed by" style="rhombus;whiteSpace=wrap;html=1;fontSize=16;" vertex="1" parent="1">
          <mxGeometry x="320" y="1110" width="160" height="60" as="geometry" />
        </mxCell>
        <mxCell id="8X7dvq80VH3Jzj3rg1aC-135" value="&lt;span style=&quot;font-size: 20px;&quot;&gt;Student&lt;/span&gt;" style="swimlane;fontStyle=0;childLayout=stackLayout;horizontal=1;startSize=30;horizontalStack=0;resizeParent=1;resizeParentMax=0;resizeLast=0;collapsible=1;marginBottom=0;whiteSpace=wrap;html=1;" vertex="1" parent="1">
          <mxGeometry x="1060" y="860" width="160" height="120" as="geometry">
            <mxRectangle x="1370" y="1150" width="60" height="30" as="alternateBounds" />
          </mxGeometry>
        </mxCell>
        <mxCell id="8X7dvq80VH3Jzj3rg1aC-136" value="Student ID" style="text;strokeColor=none;fillColor=none;align=left;verticalAlign=middle;spacingLeft=4;spacingRight=4;overflow=hidden;points=[[0,0.5],[1,0.5]];portConstraint=eastwest;rotatable=0;whiteSpace=wrap;html=1;fontSize=14;" vertex="1" parent="8X7dvq80VH3Jzj3rg1aC-135">
          <mxGeometry y="30" width="160" height="30" as="geometry" />
        </mxCell>
        <mxCell id="8X7dvq80VH3Jzj3rg1aC-137" value="Name" style="text;strokeColor=none;fillColor=none;align=left;verticalAlign=middle;spacingLeft=4;spacingRight=4;overflow=hidden;points=[[0,0.5],[1,0.5]];portConstraint=eastwest;rotatable=0;whiteSpace=wrap;html=1;fontSize=14;" vertex="1" parent="8X7dvq80VH3Jzj3rg1aC-135">
          <mxGeometry y="60" width="160" height="30" as="geometry" />
        </mxCell>
        <mxCell id="8X7dvq80VH3Jzj3rg1aC-138" value="Program" style="text;strokeColor=none;fillColor=none;align=left;verticalAlign=middle;spacingLeft=4;spacingRight=4;overflow=hidden;points=[[0,0.5],[1,0.5]];portConstraint=eastwest;rotatable=0;whiteSpace=wrap;html=1;fontSize=14;" vertex="1" parent="8X7dvq80VH3Jzj3rg1aC-135">
          <mxGeometry y="90" width="160" height="30" as="geometry" />
        </mxCell>
        <mxCell id="8X7dvq80VH3Jzj3rg1aC-161" style="edgeStyle=orthogonalEdgeStyle;rounded=0;orthogonalLoop=1;jettySize=auto;html=1;exitX=0;exitY=0.5;exitDx=0;exitDy=0;entryX=1;entryY=0.5;entryDx=0;entryDy=0;endArrow=ERoneToMany;endFill=0;endSize=12;" edge="1" parent="1" source="8X7dvq80VH3Jzj3rg1aC-140" target="8X7dvq80VH3Jzj3rg1aC-135">
          <mxGeometry relative="1" as="geometry" />
        </mxCell>
        <mxCell id="8X7dvq80VH3Jzj3rg1aC-162" style="edgeStyle=orthogonalEdgeStyle;rounded=0;orthogonalLoop=1;jettySize=auto;html=1;exitX=1;exitY=0.5;exitDx=0;exitDy=0;entryX=0;entryY=0.5;entryDx=0;entryDy=0;endArrow=ERone;endFill=0;endSize=12;" edge="1" parent="1" source="8X7dvq80VH3Jzj3rg1aC-140" target="8X7dvq80VH3Jzj3rg1aC-145">
          <mxGeometry relative="1" as="geometry" />
        </mxCell>
        <mxCell id="8X7dvq80VH3Jzj3rg1aC-140" value="Enrolls" style="rhombus;whiteSpace=wrap;html=1;fontSize=16;" vertex="1" parent="1">
          <mxGeometry x="1300" y="890" width="80" height="60" as="geometry" />
        </mxCell>
        <mxCell id="8X7dvq80VH3Jzj3rg1aC-141" value="&lt;span style=&quot;font-size: 20px;&quot;&gt;Courses&lt;/span&gt;" style="swimlane;fontStyle=0;childLayout=stackLayout;horizontal=1;startSize=30;horizontalStack=0;resizeParent=1;resizeParentMax=0;resizeLast=0;collapsible=1;marginBottom=0;whiteSpace=wrap;html=1;" vertex="1" parent="1">
          <mxGeometry x="1460" y="1160" width="160" height="180" as="geometry">
            <mxRectangle x="1700" y="1360" width="60" height="30" as="alternateBounds" />
          </mxGeometry>
        </mxCell>
        <mxCell id="8X7dvq80VH3Jzj3rg1aC-142" value="Course Number" style="text;strokeColor=none;fillColor=none;align=left;verticalAlign=middle;spacingLeft=4;spacingRight=4;overflow=hidden;points=[[0,0.5],[1,0.5]];portConstraint=eastwest;rotatable=0;whiteSpace=wrap;html=1;fontSize=14;" vertex="1" parent="8X7dvq80VH3Jzj3rg1aC-141">
          <mxGeometry y="30" width="160" height="30" as="geometry" />
        </mxCell>
        <mxCell id="8X7dvq80VH3Jzj3rg1aC-143" value="Title" style="text;strokeColor=none;fillColor=none;align=left;verticalAlign=middle;spacingLeft=4;spacingRight=4;overflow=hidden;points=[[0,0.5],[1,0.5]];portConstraint=eastwest;rotatable=0;whiteSpace=wrap;html=1;fontSize=14;" vertex="1" parent="8X7dvq80VH3Jzj3rg1aC-141">
          <mxGeometry y="60" width="160" height="30" as="geometry" />
        </mxCell>
        <mxCell id="8X7dvq80VH3Jzj3rg1aC-144" value="Credits" style="text;strokeColor=none;fillColor=none;align=left;verticalAlign=middle;spacingLeft=4;spacingRight=4;overflow=hidden;points=[[0,0.5],[1,0.5]];portConstraint=eastwest;rotatable=0;whiteSpace=wrap;html=1;fontSize=14;" vertex="1" parent="8X7dvq80VH3Jzj3rg1aC-141">
          <mxGeometry y="90" width="160" height="30" as="geometry" />
        </mxCell>
        <mxCell id="8X7dvq80VH3Jzj3rg1aC-149" value="Syllabus" style="text;strokeColor=none;fillColor=none;align=left;verticalAlign=middle;spacingLeft=4;spacingRight=4;overflow=hidden;points=[[0,0.5],[1,0.5]];portConstraint=eastwest;rotatable=0;whiteSpace=wrap;html=1;fontSize=14;" vertex="1" parent="8X7dvq80VH3Jzj3rg1aC-141">
          <mxGeometry y="120" width="160" height="30" as="geometry" />
        </mxCell>
        <mxCell id="8X7dvq80VH3Jzj3rg1aC-151" value="Prerequisites" style="text;strokeColor=none;fillColor=none;align=left;verticalAlign=middle;spacingLeft=4;spacingRight=4;overflow=hidden;points=[[0,0.5],[1,0.5]];portConstraint=eastwest;rotatable=0;whiteSpace=wrap;html=1;fontSize=14;" vertex="1" parent="8X7dvq80VH3Jzj3rg1aC-141">
          <mxGeometry y="150" width="160" height="30" as="geometry" />
        </mxCell>
        <mxCell id="8X7dvq80VH3Jzj3rg1aC-145" value="&lt;span style=&quot;font-size: 20px;&quot;&gt;Course Offerings&lt;/span&gt;" style="swimlane;fontStyle=0;childLayout=stackLayout;horizontal=1;startSize=30;horizontalStack=0;resizeParent=1;resizeParentMax=0;resizeLast=0;collapsible=1;marginBottom=0;whiteSpace=wrap;html=1;" vertex="1" parent="1">
          <mxGeometry x="1460" y="830" width="160" height="180" as="geometry">
            <mxRectangle x="1700" y="1145" width="60" height="30" as="alternateBounds" />
          </mxGeometry>
        </mxCell>
        <mxCell id="8X7dvq80VH3Jzj3rg1aC-146" value="Number" style="text;strokeColor=none;fillColor=none;align=left;verticalAlign=middle;spacingLeft=4;spacingRight=4;overflow=hidden;points=[[0,0.5],[1,0.5]];portConstraint=eastwest;rotatable=0;whiteSpace=wrap;html=1;fontSize=14;" vertex="1" parent="8X7dvq80VH3Jzj3rg1aC-145">
          <mxGeometry y="30" width="160" height="30" as="geometry" />
        </mxCell>
        <mxCell id="8X7dvq80VH3Jzj3rg1aC-147" value="Year" style="text;strokeColor=none;fillColor=none;align=left;verticalAlign=middle;spacingLeft=4;spacingRight=4;overflow=hidden;points=[[0,0.5],[1,0.5]];portConstraint=eastwest;rotatable=0;whiteSpace=wrap;html=1;fontSize=14;" vertex="1" parent="8X7dvq80VH3Jzj3rg1aC-145">
          <mxGeometry y="60" width="160" height="30" as="geometry" />
        </mxCell>
        <mxCell id="8X7dvq80VH3Jzj3rg1aC-148" value="Semester" style="text;strokeColor=none;fillColor=none;align=left;verticalAlign=middle;spacingLeft=4;spacingRight=4;overflow=hidden;points=[[0,0.5],[1,0.5]];portConstraint=eastwest;rotatable=0;whiteSpace=wrap;html=1;fontSize=14;" vertex="1" parent="8X7dvq80VH3Jzj3rg1aC-145">
          <mxGeometry y="90" width="160" height="30" as="geometry" />
        </mxCell>
        <mxCell id="8X7dvq80VH3Jzj3rg1aC-153" value="Section Number" style="text;strokeColor=none;fillColor=none;align=left;verticalAlign=middle;spacingLeft=4;spacingRight=4;overflow=hidden;points=[[0,0.5],[1,0.5]];portConstraint=eastwest;rotatable=0;whiteSpace=wrap;html=1;fontSize=14;" vertex="1" parent="8X7dvq80VH3Jzj3rg1aC-145">
          <mxGeometry y="120" width="160" height="30" as="geometry" />
        </mxCell>
        <mxCell id="8X7dvq80VH3Jzj3rg1aC-152" value="Time" style="text;strokeColor=none;fillColor=none;align=left;verticalAlign=middle;spacingLeft=4;spacingRight=4;overflow=hidden;points=[[0,0.5],[1,0.5]];portConstraint=eastwest;rotatable=0;whiteSpace=wrap;html=1;fontSize=14;" vertex="1" parent="8X7dvq80VH3Jzj3rg1aC-145">
          <mxGeometry y="150" width="160" height="30" as="geometry" />
        </mxCell>
        <mxCell id="8X7dvq80VH3Jzj3rg1aC-154" value="&lt;span style=&quot;font-size: 20px;&quot;&gt;Instructor&amp;nbsp;&lt;/span&gt;" style="swimlane;fontStyle=0;childLayout=stackLayout;horizontal=1;startSize=30;horizontalStack=0;resizeParent=1;resizeParentMax=0;resizeLast=0;collapsible=1;marginBottom=0;whiteSpace=wrap;html=1;" vertex="1" parent="1">
          <mxGeometry x="1860" y="845" width="160" height="150" as="geometry">
            <mxRectangle x="2040" y="1145" width="60" height="30" as="alternateBounds" />
          </mxGeometry>
        </mxCell>
        <mxCell id="8X7dvq80VH3Jzj3rg1aC-155" value="ID" style="text;strokeColor=none;fillColor=none;align=left;verticalAlign=middle;spacingLeft=4;spacingRight=4;overflow=hidden;points=[[0,0.5],[1,0.5]];portConstraint=eastwest;rotatable=0;whiteSpace=wrap;html=1;fontSize=14;" vertex="1" parent="8X7dvq80VH3Jzj3rg1aC-154">
          <mxGeometry y="30" width="160" height="30" as="geometry" />
        </mxCell>
        <mxCell id="8X7dvq80VH3Jzj3rg1aC-156" value="Name" style="text;strokeColor=none;fillColor=none;align=left;verticalAlign=middle;spacingLeft=4;spacingRight=4;overflow=hidden;points=[[0,0.5],[1,0.5]];portConstraint=eastwest;rotatable=0;whiteSpace=wrap;html=1;fontSize=14;" vertex="1" parent="8X7dvq80VH3Jzj3rg1aC-154">
          <mxGeometry y="60" width="160" height="30" as="geometry" />
        </mxCell>
        <mxCell id="8X7dvq80VH3Jzj3rg1aC-157" value="Department" style="text;strokeColor=none;fillColor=none;align=left;verticalAlign=middle;spacingLeft=4;spacingRight=4;overflow=hidden;points=[[0,0.5],[1,0.5]];portConstraint=eastwest;rotatable=0;whiteSpace=wrap;html=1;fontSize=14;" vertex="1" parent="8X7dvq80VH3Jzj3rg1aC-154">
          <mxGeometry y="90" width="160" height="30" as="geometry" />
        </mxCell>
        <mxCell id="8X7dvq80VH3Jzj3rg1aC-158" value="Title" style="text;strokeColor=none;fillColor=none;align=left;verticalAlign=middle;spacingLeft=4;spacingRight=4;overflow=hidden;points=[[0,0.5],[1,0.5]];portConstraint=eastwest;rotatable=0;whiteSpace=wrap;html=1;fontSize=14;" vertex="1" parent="8X7dvq80VH3Jzj3rg1aC-154">
          <mxGeometry y="120" width="160" height="30" as="geometry" />
        </mxCell>
        <mxCell id="8X7dvq80VH3Jzj3rg1aC-166" style="edgeStyle=orthogonalEdgeStyle;rounded=0;orthogonalLoop=1;jettySize=auto;html=1;exitX=0.5;exitY=0;exitDx=0;exitDy=0;entryX=0.5;entryY=1;entryDx=0;entryDy=0;shape=link;" edge="1" parent="1" source="8X7dvq80VH3Jzj3rg1aC-159" target="8X7dvq80VH3Jzj3rg1aC-145">
          <mxGeometry relative="1" as="geometry" />
        </mxCell>
        <mxCell id="8X7dvq80VH3Jzj3rg1aC-167" style="edgeStyle=orthogonalEdgeStyle;rounded=0;orthogonalLoop=1;jettySize=auto;html=1;exitX=0.5;exitY=1;exitDx=0;exitDy=0;entryX=0.5;entryY=0;entryDx=0;entryDy=0;endArrow=ERoneToMany;endFill=0;endSize=12;" edge="1" parent="1" source="8X7dvq80VH3Jzj3rg1aC-159" target="8X7dvq80VH3Jzj3rg1aC-141">
          <mxGeometry relative="1" as="geometry" />
        </mxCell>
        <mxCell id="8X7dvq80VH3Jzj3rg1aC-159" value="Is Offered" style="rhombus;whiteSpace=wrap;html=1;fontSize=16;" vertex="1" parent="1">
          <mxGeometry x="1500" y="1050" width="80" height="60" as="geometry" />
        </mxCell>
        <mxCell id="8X7dvq80VH3Jzj3rg1aC-163" style="edgeStyle=orthogonalEdgeStyle;rounded=0;orthogonalLoop=1;jettySize=auto;html=1;exitX=0;exitY=0.5;exitDx=0;exitDy=0;entryX=1;entryY=0.5;entryDx=0;entryDy=0;endArrow=ERoneToMany;endFill=0;endSize=12;" edge="1" parent="1" source="8X7dvq80VH3Jzj3rg1aC-160" target="8X7dvq80VH3Jzj3rg1aC-145">
          <mxGeometry relative="1" as="geometry" />
        </mxCell>
        <mxCell id="8X7dvq80VH3Jzj3rg1aC-164" style="edgeStyle=orthogonalEdgeStyle;rounded=0;orthogonalLoop=1;jettySize=auto;html=1;exitX=1;exitY=0.5;exitDx=0;exitDy=0;entryX=0;entryY=0.5;entryDx=0;entryDy=0;endArrow=ERoneToMany;endFill=0;endSize=12;" edge="1" parent="1" source="8X7dvq80VH3Jzj3rg1aC-160" target="8X7dvq80VH3Jzj3rg1aC-154">
          <mxGeometry relative="1" as="geometry" />
        </mxCell>
        <mxCell id="8X7dvq80VH3Jzj3rg1aC-160" value="Teaches" style="rhombus;whiteSpace=wrap;html=1;fontSize=16;" vertex="1" parent="1">
          <mxGeometry x="1700" y="890" width="80" height="60" as="geometry" />
        </mxCell>
        <mxCell id="8X7dvq80VH3Jzj3rg1aC-168" value="" style="rounded=0;whiteSpace=wrap;html=1;" vertex="1" parent="1">
          <mxGeometry x="-370" y="630" width="120" height="60" as="geometry" />
        </mxCell>
        <mxCell id="8X7dvq80VH3Jzj3rg1aC-169" value="" style="rounded=0;whiteSpace=wrap;html=1;" vertex="1" parent="1">
          <mxGeometry x="890" y="-180" width="120" height="60" as="geometry" />
        </mxCell>
        <mxCell id="8X7dvq80VH3Jzj3rg1aC-170" value="" style="rounded=0;whiteSpace=wrap;html=1;" vertex="1" parent="1">
          <mxGeometry x="2410" y="650" width="120" height="60" as="geometry" />
        </mxCell>
        <mxCell id="8X7dvq80VH3Jzj3rg1aC-171" value="" style="rounded=0;whiteSpace=wrap;html=1;" vertex="1" parent="1">
          <mxGeometry x="900" y="1570" width="120" height="60" as="geometry" />
        </mxCell>
      </root>
    </mxGraphModel>
  </diagram>
</mxfile>
